<?xml version="1.0" encoding="UTF-8"?>
<svg xmlns="http://www.w3.org/2000/svg" xmlns:xlink="http://www.w3.org/1999/xlink" version="1.1" width="2560px" height="1172px" style="shape-rendering:geometricPrecision; text-rendering:geometricPrecision; image-rendering:optimizeQuality; fill-rule:evenodd; clip-rule:evenodd">
  <g>
    <path style="opacity:0.983" fill="#fe4800" d="M 1550.5,0.5 C 1563.89,0.235445 1577.22,0.902112 1590.5,2.5C 1590.33,33.8351 1590.5,65.1684 1591,96.5C 1613,74.5 1635,52.5 1657,30.5C 1672.51,40.6791 1685.35,53.5124 1695.5,69C 1673.87,91.6264 1651.87,113.96 1629.5,136C 1661.16,136.5 1692.83,136.667 1724.5,136.5C 1725.22,145.49 1725.89,154.49 1726.5,163.5C 1726.19,172.792 1725.19,181.959 1723.5,191C 1692.5,191.333 1661.5,191.667 1630.5,192C 1652.54,213.707 1674.21,235.707 1695.5,258C 1685.93,272.24 1674.26,284.573 1660.5,295C 1659.24,295.982 1657.91,296.315 1656.5,296C 1634.39,274.554 1612.55,252.721 1591,230.5C 1591.16,262.222 1590.32,293.722 1588.5,325C 1570.64,328.269 1553.14,328.102 1536,324.5C 1535.67,293.167 1535.33,261.833 1535,230.5C 1512.96,252.874 1490.63,274.874 1468,296.5C 1453.18,285.679 1440.35,272.846 1429.5,258C 1451.5,236 1473.5,214 1495.5,192C 1464.17,191.5 1432.84,191.333 1401.5,191.5C 1398.89,173.171 1398.89,154.838 1401.5,136.5C 1433.17,136.667 1464.84,136.5 1496.5,136C 1474.29,113.626 1451.96,91.459 1429.5,69.5C 1440.17,54.1667 1453.17,41.1667 1468.5,30.5C 1490.82,52.3194 1512.99,74.3194 1535,96.5C 1535.5,65.1684 1535.67,33.8351 1535.5,2.5C 1540.68,2.15319 1545.68,1.48653 1550.5,0.5 Z M 1553.5,123.5 C 1566.76,122.799 1579.76,124.299 1592.5,128C 1594.65,128.265 1596.32,129.265 1597.5,131C 1605.75,153.514 1605.42,175.848 1596.5,198C 1578.85,204.271 1560.85,205.605 1542.5,202C 1537.81,200.829 1533.15,199.662 1528.5,198.5C 1521.41,177.878 1520.74,157.044 1526.5,136C 1526.91,133.071 1528.24,130.738 1530.5,129C 1538.13,126.445 1545.8,124.612 1553.5,123.5 Z"></path>
  </g>
  <g>
    <path style="opacity:0.99" fill="#fe4800" d="M 636.5,420.5 C 670.221,418.981 703.555,421.814 736.5,429C 800.621,444.454 839.788,484.287 854,548.5C 856.486,560.386 858.152,572.386 859,584.5C 859.833,697.501 859.667,810.501 858.5,923.5C 798.321,938.677 737.488,947.01 676,948.5C 636.524,948.908 598.024,943.075 560.5,931C 497.023,904.617 465.69,856.784 466.5,787.5C 467.011,726.956 493.011,681.123 544.5,650C 582.232,629.816 622.566,619.149 665.5,618C 698.013,617.039 730.679,618.539 763.5,622.5C 764.538,602.617 763.038,582.951 759,563.5C 750.86,535.36 732.693,517.193 704.5,509C 686.005,504.001 667.172,501.501 648,501.5C 606.635,502.107 566.302,508.774 527,521.5C 517.023,504.903 511.023,486.903 509,467.5C 507.947,459.198 507.447,450.865 507.5,442.5C 549.794,430.318 592.794,422.985 636.5,420.5 Z M 665.5,694.5 C 698.299,693.7 730.966,695.367 763.5,699.5C 763.5,752.833 763.5,806.167 763.5,859.5C 719.537,868.778 675.203,870.944 630.5,866C 595.35,860.178 573.85,840.012 566,805.5C 557.029,749.865 579.529,714.698 633.5,700C 644.224,697.639 654.89,695.806 665.5,694.5 Z"></path>
  </g>
  <g>
    <path style="opacity:0.99" fill="#fe4800" d="M 1036.5,1171.5 C 1021.17,1171.5 1005.83,1171.5 990.5,1171.5C 982.045,1170.54 973.545,1169.21 965,1167.5C 964.167,922.499 964.333,677.499 965.5,432.5C 992.833,427.167 1020.17,427.167 1047.5,432.5C 1048.9,434.972 1049.73,437.638 1050,440.5C 1052.91,460.801 1055.58,481.135 1058,501.5C 1090.14,452.495 1135.64,425.661 1194.5,421C 1301.41,415.5 1370.58,463.667 1402,565.5C 1419.92,635.182 1419.92,704.849 1402,774.5C 1372.25,869.236 1308.42,925.403 1210.5,943C 1161.36,951.647 1112.36,949.814 1063.5,937.5C 1062.5,1014.5 1062.17,1091.5 1062.5,1168.5C 1053.66,1169.19 1044.99,1170.19 1036.5,1171.5 Z M 1180.5,505.5 C 1206.83,503.93 1231.49,509.43 1254.5,522C 1273.12,535.027 1286.62,552.194 1295,573.5C 1307.24,606.194 1313.08,640.027 1312.5,675C 1313.8,716.046 1305.3,754.879 1287,791.5C 1261.64,836.121 1223.14,860.621 1171.5,865C 1148.11,866.066 1124.78,865.399 1101.5,863C 1088.2,860.925 1075.2,857.759 1062.5,853.5C 1062.33,784.833 1062.5,716.166 1063,647.5C 1062.26,613.056 1071.6,581.722 1091,553.5C 1114.01,524.746 1143.84,508.746 1180.5,505.5 Z"></path>
  </g>
  <g>
    <path style="opacity:0.991" fill="#fe4800" d="M 1955.5,420.5 C 2006.47,416.453 2053.47,427.953 2096.5,455C 2139.33,486.774 2166.5,528.941 2178,581.5C 2185.06,614.15 2187.39,647.15 2185,680.5C 2184.47,689.51 2183.8,698.51 2183,707.5C 2068.9,708.499 1954.74,708.832 1840.5,708.5C 1840.59,735.722 1845.43,762.056 1855,787.5C 1872.94,827.418 1903.44,851.918 1946.5,861C 2010.89,872.452 2073.55,866.285 2134.5,842.5C 2135.48,842.977 2136.31,843.643 2137,844.5C 2147.65,868.735 2153.31,894.068 2154,920.5C 2123.06,933.277 2090.89,941.444 2057.5,945C 2015.07,950.132 1972.73,949.465 1930.5,943C 1818.74,921.57 1755.24,854.403 1740,741.5C 1731.62,680.011 1737.62,620.011 1758,561.5C 1787.9,486.607 1842.4,441.107 1921.5,425C 1932.94,423.155 1944.27,421.655 1955.5,420.5 Z M 1963.5,498.5 C 2023.08,497.519 2062.24,525.186 2081,581.5C 2086.43,599.093 2088.93,617.093 2088.5,635.5C 2006.17,635.5 1923.83,635.5 1841.5,635.5C 1844.19,597.248 1857.35,563.248 1881,533.5C 1903.9,511.032 1931.4,499.366 1963.5,498.5 Z"></path>
  </g>
  <g>
    <path style="opacity:0.991" fill="#fe4800" d="M 2559.5,451.5 C 2559.5,464.167 2559.5,476.833 2559.5,489.5C 2558.01,499.356 2556.51,509.356 2555,519.5C 2452.46,509.029 2397.79,555.362 2391,658.5C 2390.5,751.166 2390.33,843.833 2390.5,936.5C 2357.83,941.833 2325.17,941.833 2292.5,936.5C 2292.33,768.5 2292.5,600.5 2293,432.5C 2320.14,427.178 2347.31,427.178 2374.5,432.5C 2377.19,441.955 2379.02,451.622 2380,461.5C 2381.93,477.476 2383.6,493.476 2385,509.5C 2404.15,480.017 2429.32,457.183 2460.5,441C 2491.64,429.485 2523.64,426.318 2556.5,431.5C 2557.09,438.361 2558.09,445.028 2559.5,451.5 Z"></path>
  </g>
  <g>
    <path style="opacity:0.991" fill="#fe4800" d="M -0.5,924.5 C -0.5,923.167 -0.5,921.833 -0.5,920.5C 87.637,784.175 175.637,647.675 263.5,511C 185.834,510.5 108.167,510.333 30.5,510.5C 26.5,484.5 26.5,458.5 30.5,432.5C 156.835,432.167 283.168,432.5 409.5,433.5C 411.038,437.407 412.704,441.24 414.5,445C 325.5,582.667 236.5,720.333 147.5,858C 230.833,858.5 314.166,858.667 397.5,858.5C 401.453,884.502 401.453,910.502 397.5,936.5C 266.167,936.5 134.833,936.5 3.5,936.5C 2.73865,932.216 1.40532,928.216 -0.5,924.5 Z"></path>
  </g>
  <g>
    <path style="opacity:0.99" fill="#fe4800" d="M 1471.5,432.5 C 1524.83,432.5 1578.17,432.5 1631.5,432.5C 1631.5,600.5 1631.5,768.5 1631.5,936.5C 1599.5,941.833 1567.5,941.833 1535.5,936.5C 1535.5,794.167 1535.5,651.833 1535.5,509.5C 1514.16,509.833 1492.82,509.5 1471.5,508.5C 1466.19,483.167 1466.19,457.834 1471.5,432.5 Z"></path>
  </g>
</svg>
